<svg width="362" height="47" viewBox="0 0 362 47" fill="none" xmlns="http://www.w3.org/2000/svg">
<path d="M4.75 36H3.75V37H4.75V36ZM4.75 20.9531H5.75V19.9531H4.75V20.9531ZM0.53125 20.9531H-0.46875V21.9531H0.53125V20.9531ZM0.53125 16.6641V15.6641H-0.46875V16.6641H0.53125ZM4.75 16.6641V17.6641H5.75V16.6641H4.75ZM4.75 1.875V0.875H3.75V1.875H4.75ZM23.2891 3.91406L22.7898 4.78056L22.7966 4.78441L23.2891 3.91406ZM28.8438 9.67969L27.9606 10.1488L27.9619 10.1511L28.8438 9.67969ZM28.8672 28.1953L27.9842 27.7259L27.9819 27.7303L28.8672 28.1953ZM15.3203 36L15.3203 37L15.3255 37L15.3203 36ZM16.9141 20.9531V21.9531H17.9141V20.9531H16.9141ZM11.7812 20.9531V19.9531H10.7812V20.9531H11.7812ZM11.7812 30.3516H10.7812V31.3516H11.7812V30.3516ZM21.5312 27.6094L22.3141 28.2316L22.3166 28.2284L21.5312 27.6094ZM21.5547 10.2656L20.7738 10.8903L20.7765 10.8936L21.5547 10.2656ZM11.7812 7.57031V6.57031H10.7812V7.57031H11.7812ZM11.7812 16.6641H10.7812V17.6641H11.7812V16.6641ZM16.9141 16.6641H17.9141V15.6641H16.9141V16.6641ZM5.75 36V20.9531H3.75V36H5.75ZM4.75 19.9531H0.53125V21.9531H4.75V19.9531ZM1.53125 20.9531V16.6641H-0.46875V20.9531H1.53125ZM0.53125 17.6641H4.75V15.6641H0.53125V17.6641ZM5.75 16.6641V1.875H3.75V16.6641H5.75ZM4.75 2.875H15.25V0.875H4.75V2.875ZM15.25 2.875C18.0931 2.875 20.5974 3.51735 22.7898 4.78053L23.7883 3.04759C21.262 1.59203 18.4069 0.875 15.25 0.875V2.875ZM22.7966 4.78441C24.9994 6.03074 26.7183 7.81042 27.9606 10.1488L29.7269 9.21053C28.3129 6.54895 26.3287 4.48489 23.7815 3.04371L22.7966 4.78441ZM27.9619 10.1511C29.2031 12.473 29.8359 15.1357 29.8359 18.1641H31.8359C31.8359 14.8487 31.1406 11.8551 29.7256 9.20824L27.9619 10.1511ZM29.8359 18.1641V19.7344H31.8359V18.1641H29.8359ZM29.8359 19.7344C29.8359 22.7648 29.2101 25.4201 27.9842 27.7259L29.7502 28.6647C31.1493 26.033 31.8359 23.0477 31.8359 19.7344H29.8359ZM27.9819 27.7303C26.7718 30.0339 25.0691 31.8067 22.8626 33.0696L23.8561 34.8054C26.3996 33.3496 28.3689 31.2942 29.7525 28.6604L27.9819 27.7303ZM22.8626 33.0696C20.6507 34.3357 18.143 34.9852 15.3151 35L15.3255 37C18.4664 36.9835 21.3181 36.2581 23.8561 34.8054L22.8626 33.0696ZM15.3203 35H4.75V37H15.3203V35ZM16.9141 19.9531H11.7812V21.9531H16.9141V19.9531ZM10.7812 20.9531V30.3516H12.7812V20.9531H10.7812ZM11.7812 31.3516H15.1797V29.3516H11.7812V31.3516ZM15.1797 31.3516C18.2009 31.3516 20.6342 30.345 22.3141 28.2316L20.7484 26.9871C19.522 28.53 17.721 29.3516 15.1797 29.3516V31.3516ZM22.3166 28.2284C23.9593 26.1442 24.7109 23.2671 24.7109 19.7344H22.7109C22.7109 23.0141 22.0095 25.3871 20.7459 26.9904L22.3166 28.2284ZM24.7109 19.7344V18.1406H22.7109V19.7344H24.7109ZM24.7109 18.1406C24.7109 14.5559 23.9715 11.668 22.3329 9.63761L20.7765 10.8936C22.0129 12.4257 22.7109 14.7879 22.7109 18.1406H24.7109ZM22.3356 9.64093C20.6695 7.55832 18.2513 6.57031 15.25 6.57031V8.57031C17.7799 8.57031 19.5649 9.37918 20.7738 10.8903L22.3356 9.64093ZM15.25 6.57031H11.7812V8.57031H15.25V6.57031ZM10.7812 7.57031V16.6641H12.7812V7.57031H10.7812ZM11.7812 17.6641H16.9141V15.6641H11.7812V17.6641ZM15.9141 16.6641V20.9531H17.9141V16.6641H15.9141ZM64.2109 8.41406H65.2109V7.41406H64.2109V8.41406ZM62.5234 14.7422L61.7495 14.1089L61.7487 14.1099L62.5234 14.7422ZM57.2734 17.1562L57.1694 16.1617L56.2734 16.2554V17.1562H57.2734ZM57.2734 36V37H58.2734V36H57.2734ZM50.8984 36L49.9011 36.0725L49.9685 37H50.8984V36ZM50.7109 33.4219L51.7083 33.3493L51.527 30.8568L49.9388 32.7864L50.7109 33.4219ZM37.5391 34.125L36.7994 34.7981L36.8031 34.8021L37.5391 34.125ZM35.3594 27.2578H34.3593L34.3594 27.2682L35.3594 27.2578ZM35.3594 10.6406V9.64062H34.3594V10.6406H35.3594ZM42.1328 10.6406H43.1328V9.64062H42.1328V10.6406ZM50.4766 28.5938L51.3568 29.0684L51.4766 28.8462V28.5938H50.4766ZM50.4766 10.6406V9.64062H49.4766V10.6406H50.4766ZM57.2734 10.6406H58.2734V9.64062H57.2734V10.6406ZM57.2734 13.8984H56.2734V15.1431L57.4888 14.875L57.2734 13.8984ZM59.5 12.4453L58.6409 11.9335L58.6368 11.9403L58.6329 11.9472L59.5 12.4453ZM60.1562 8.41406V7.41406H59.1562V8.41406H60.1562ZM63.2109 8.41406C63.2109 11.1567 62.6631 12.9923 61.7495 14.1089L63.2974 15.3754C64.6337 13.7421 65.2109 11.3589 65.2109 8.41406H63.2109ZM61.7487 14.1099C60.8603 15.1985 59.3967 15.9288 57.1694 16.1617L57.3774 18.1508C59.9314 17.8837 61.9678 17.0046 63.2982 15.3745L61.7487 14.1099ZM56.2734 17.1562V36H58.2734V17.1562H56.2734ZM57.2734 35H50.8984V37H57.2734V35ZM51.8958 35.9275L51.7083 33.3493L49.7136 33.4944L49.9011 36.0725L51.8958 35.9275ZM49.9388 32.7864C48.4817 34.5567 46.469 35.4688 43.7734 35.4688V37.4688C46.9841 37.4688 49.5964 36.3495 51.483 34.0574L49.9388 32.7864ZM43.7734 35.4688C41.2511 35.4688 39.4733 34.7504 38.275 33.4479L36.8031 34.8021C38.4799 36.6246 40.8583 37.4688 43.7734 37.4688V35.4688ZM38.2787 33.452C37.0806 32.1354 36.3891 30.1216 36.3593 27.2475L34.3594 27.2682C34.3921 30.4252 35.1538 32.9896 36.7995 34.798L38.2787 33.452ZM36.3594 27.2578V10.6406H34.3594V27.2578H36.3594ZM35.3594 11.6406H42.1328V9.64062H35.3594V11.6406ZM41.1328 10.6406V27.0234H43.1328V10.6406H41.1328ZM41.1328 27.0234C41.1328 28.4761 41.4618 29.7522 42.296 30.6677C43.1463 31.6008 44.3597 31.9844 45.7422 31.9844V29.9844C44.7184 29.9844 44.1271 29.7078 43.7743 29.3206C43.4054 28.9158 43.1328 28.2114 43.1328 27.0234H41.1328ZM45.7422 31.9844C48.2908 31.9844 50.274 31.0764 51.3568 29.0684L49.5964 28.1191C48.9604 29.2986 47.7873 29.9844 45.7422 29.9844V31.9844ZM51.4766 28.5938V10.6406H49.4766V28.5938H51.4766ZM50.4766 11.6406H57.2734V9.64062H50.4766V11.6406ZM56.2734 10.6406V13.8984H58.2734V10.6406H56.2734ZM57.4888 14.875C58.7431 14.5983 59.7676 13.9871 60.3671 12.9434L58.6329 11.9472C58.3887 12.3723 57.9288 12.7298 57.058 12.9219L57.4888 14.875ZM60.3591 12.9571C60.6689 12.4371 60.8602 11.7785 60.9792 11.0474C61.1 10.305 61.1562 9.42342 61.1562 8.41406H59.1562C59.1562 9.35783 59.1031 10.1246 59.0052 10.726C58.9054 11.3387 58.7686 11.7191 58.6409 11.9335L60.3591 12.9571ZM60.1562 9.41406H64.2109V7.41406H60.1562V9.41406ZM79.5156 36L78.6258 36.4563L78.9046 37H79.5156V36ZM78.8359 33.7266L79.8241 33.5732L79.5006 31.4887L78.0917 33.0587L78.8359 33.7266ZM66.25 34.3125L65.5874 35.0615L65.591 35.0646L66.25 34.3125ZM66.7891 22.6875L66.2054 21.8755L66.2024 21.8777L66.7891 22.6875ZM75.4375 20.5078V19.5078L75.4334 19.5078L75.4375 20.5078ZM78.5547 20.5078V21.5078H79.5547V20.5078H78.5547ZM77.6406 16.2422L76.8765 16.8874L76.8849 16.8971L77.6406 16.2422ZM72.1094 16.0078L71.4691 15.2395L71.4601 15.2472L72.1094 16.0078ZM71.1484 18.2578V19.2578H72.1484V18.2578H71.1484ZM64.375 18.2578H63.375V19.2578H64.375V18.2578ZM69.5781 11.25L69.9689 12.1705L69.9762 12.1673L69.5781 11.25ZM82.5859 12.5391L81.9325 13.2961L81.9394 13.302L82.5859 12.5391ZM85.3516 30.1406L84.3515 30.1406L84.3516 30.1471L85.3516 30.1406ZM86.3594 35.6016H87.3594V35.3523L87.2423 35.1321L86.3594 35.6016ZM86.3594 36V37H87.3594V36H86.3594ZM76.6797 30.6328L77.14 31.5206L77.1464 31.5172L77.1528 31.5138L76.6797 30.6328ZM78.5547 28.8281L79.434 29.3044L79.5547 29.0816V28.8281H78.5547ZM78.5547 24.4688H79.5547V23.4688H78.5547V24.4688ZM70.6094 27.9844L69.6137 27.8914L69.6121 27.9085L69.6111 27.9257L70.6094 27.9844ZM70.5859 28.3828L69.5877 28.3241L69.5859 28.3534V28.3828H70.5859ZM80.4054 35.5437C80.1551 35.0555 79.9535 34.4073 79.8241 33.5732L77.8478 33.8799C77.9996 34.8583 78.2512 35.7258 78.6258 36.4563L80.4054 35.5437ZM78.0917 33.0587C76.6549 34.6596 74.8005 35.4688 72.4375 35.4688V37.4688C75.3245 37.4688 77.7357 36.4498 79.5802 34.3945L78.0917 33.0587ZM72.4375 35.4688C70.1597 35.4688 68.342 34.8159 66.909 33.5604L65.591 35.0646C67.4393 36.6841 69.7466 37.4688 72.4375 37.4688V35.4688ZM66.9126 33.5635C65.5042 32.3176 64.8125 30.7787 64.8125 28.875H62.8125C62.8125 31.3463 63.7458 33.4324 65.5874 35.0615L66.9126 33.5635ZM64.8125 28.875C64.8125 26.472 65.6789 24.7265 67.3757 23.4973L66.2024 21.8777C63.9305 23.5235 62.8125 25.903 62.8125 28.875H64.8125ZM67.3727 23.4995C69.1359 22.2322 71.7809 21.523 75.4416 21.5078L75.4334 19.5078C71.5629 19.5239 68.4423 20.2678 66.2054 21.8755L67.3727 23.4995ZM75.4375 21.5078H78.5547V19.5078H75.4375V21.5078ZM79.5547 20.5078V19.0547H77.5547V20.5078H79.5547ZM79.5547 19.0547C79.5547 17.7066 79.2009 16.5156 78.3963 15.5873L76.8849 16.8971C77.2991 17.375 77.5547 18.059 77.5547 19.0547H79.5547ZM78.4047 15.597C77.5526 14.588 76.2707 14.1875 74.8047 14.1875V16.1875C75.9325 16.1875 76.5411 16.4901 76.8766 16.8874L78.4047 15.597ZM74.8047 14.1875C73.509 14.1875 72.3576 14.4992 71.4692 15.2396L72.7496 16.776C73.1736 16.4227 73.8191 16.1875 74.8047 16.1875V14.1875ZM71.4601 15.2472C70.5661 16.0104 70.1484 17.0551 70.1484 18.2578H72.1484C72.1484 17.5542 72.3714 17.099 72.7586 16.7684L71.4601 15.2472ZM71.1484 17.2578H64.375V19.2578H71.1484V17.2578ZM65.375 18.2578C65.375 17.0111 65.7547 15.8553 66.544 14.7667L64.9248 13.5927C63.9015 15.0041 63.375 16.567 63.375 18.2578H65.375ZM66.544 14.7667C67.327 13.6867 68.4519 12.8145 69.9689 12.1705L69.1874 10.3295C67.3918 11.0918 65.9543 12.1727 64.9248 13.5927L66.544 14.7667ZM69.9762 12.1673C71.4902 11.5103 73.2113 11.1719 75.1562 11.1719V9.17188C72.9762 9.17188 70.9786 9.55215 69.18 10.3327L69.9762 12.1673ZM75.1562 11.1719C78.1134 11.1719 80.334 11.9161 81.9325 13.296L83.2394 11.7821C81.1817 10.0058 78.4491 9.17188 75.1562 9.17188V11.1719ZM81.9394 13.302C83.5185 14.6402 84.3516 16.5411 84.3516 19.1484H86.3516C86.3516 16.0683 85.3408 13.5629 83.2325 11.7762L81.9394 13.302ZM84.3516 19.1484V30.1406H86.3516V19.1484H84.3516ZM84.3516 30.1471C84.3676 32.6138 84.708 34.6256 85.4764 36.071L87.2423 35.1321C86.6983 34.1088 86.3668 32.48 86.3515 30.1341L84.3516 30.1471ZM85.3594 35.6016V36H87.3594V35.6016H85.3594ZM86.3594 35H79.5156V37H86.3594V35ZM73.9141 32.2891C75.0657 32.2891 76.1466 32.0357 77.14 31.5206L76.2194 29.7451C75.5253 30.1049 74.7625 30.2891 73.9141 30.2891V32.2891ZM77.1528 31.5138C78.1467 30.98 78.9236 30.2466 79.434 29.3044L77.6754 28.3518C77.3733 28.9096 76.9002 29.3793 76.2066 29.7518L77.1528 31.5138ZM79.5547 28.8281V24.4688H77.5547V28.8281H79.5547ZM78.5547 23.4688H76.0234V25.4688H78.5547V23.4688ZM76.0234 23.4688C74.2369 23.4688 72.7153 23.7733 71.5823 24.509C70.3972 25.2786 69.7484 26.4478 69.6137 27.8914L71.605 28.0773C71.6891 27.1772 72.0521 26.5886 72.6716 26.1863C73.3433 25.7501 74.4193 25.4688 76.0234 25.4688V23.4688ZM69.6111 27.9257L69.5877 28.3241L71.5842 28.4415L71.6076 28.0431L69.6111 27.9257ZM69.5859 28.3828C69.5859 29.4918 69.9895 30.4586 70.7991 31.2043L72.154 29.7332C71.7761 29.3851 71.5859 28.9614 71.5859 28.3828H69.5859ZM70.7991 31.2043C71.6244 31.9645 72.7039 32.2891 73.9141 32.2891V30.2891C73.0617 30.2891 72.5162 30.0668 72.154 29.7332L70.7991 31.2043ZM128.008 7.45312V8.45312H129.008V7.45312H128.008ZM124.305 7.45312V6.45312H123.305V7.45312H124.305ZM124.305 36V37H125.305V36H124.305ZM118.188 36L117.195 36.1208L117.302 37H118.188V36ZM117.859 33.3047L118.852 33.1838L118.565 30.8224L117.079 32.68L117.859 33.3047ZM104.148 32.9531L103.353 33.559L103.357 33.5649L104.148 32.9531ZM104.102 13.6875L103.305 13.0824L103.303 13.0858L104.102 13.6875ZM117.508 12.9375L116.754 13.5951L118.508 15.6038V12.9375H117.508ZM117.508 7.45312H118.508V6.45312H117.508V7.45312ZM111.602 7.45312H110.602V8.45312H111.602V7.45312ZM111.602 3.16406V2.16406H110.602V3.16406H111.602ZM117.508 3.16406V4.16406H118.508V3.16406H117.508ZM117.508 0V-1H116.508V0H117.508ZM124.305 0H125.305V-1H124.305V0ZM124.305 3.16406H123.305V4.16406H124.305V3.16406ZM128.008 3.16406H129.008V2.16406H128.008V3.16406ZM117.508 28.3359L118.407 28.7736L118.508 28.5664V28.3359H117.508ZM117.508 18.3281H118.508V18.1015L118.41 17.897L117.508 18.3281ZM128.008 6.45312H124.305V8.45312H128.008V6.45312ZM123.305 7.45312V36H125.305V7.45312H123.305ZM124.305 35H118.188V37H124.305V35ZM119.18 35.8792L118.852 33.1838L116.867 33.4255L117.195 36.1208L119.18 35.8792ZM117.079 32.68C115.577 34.5568 113.69 35.4688 111.344 35.4688V37.4688C114.31 37.4688 116.767 36.2713 118.64 33.9294L117.079 32.68ZM111.344 35.4688C108.666 35.4688 106.561 34.4382 104.939 32.3414L103.357 33.5649C105.361 36.1556 108.052 37.4688 111.344 37.4688V35.4688ZM104.944 32.3472C103.325 30.2209 102.453 27.1893 102.453 23.1328H100.453C100.453 27.4513 101.379 30.9666 103.353 33.559L104.944 32.3472ZM102.453 23.1328C102.453 19.3222 103.304 16.4082 104.9 14.2892L103.303 13.0858C101.368 15.6543 100.453 19.0372 100.453 23.1328H102.453ZM104.898 14.2926C106.48 12.2106 108.608 11.1719 111.391 11.1719V9.17188C108.017 9.17188 105.286 10.4769 103.305 13.0824L104.898 14.2926ZM111.391 11.1719C113.573 11.1719 115.337 11.9711 116.754 13.5951L118.261 12.2799C116.46 10.2164 114.145 9.17188 111.391 9.17188V11.1719ZM118.508 12.9375V7.45312H116.508V12.9375H118.508ZM117.508 6.45312H111.602V8.45312H117.508V6.45312ZM112.602 7.45312V3.16406H110.602V7.45312H112.602ZM111.602 4.16406H117.508V2.16406H111.602V4.16406ZM118.508 3.16406V0H116.508V3.16406H118.508ZM117.508 1H124.305V-1H117.508V1ZM123.305 0V3.16406H125.305V0H123.305ZM124.305 4.16406H128.008V2.16406H124.305V4.16406ZM127.008 3.16406V7.45312H129.008V3.16406H127.008ZM107.227 23.625C107.227 26.0925 107.653 28.1368 108.632 29.6335L110.306 28.5384C109.629 27.5039 109.227 25.9075 109.227 23.625H107.227ZM108.632 29.6335C109.654 31.1958 111.18 31.9844 113.078 31.9844V29.9844C111.82 29.9844 110.939 29.5073 110.306 28.5384L108.632 29.6335ZM113.078 31.9844C114.267 31.9844 115.345 31.7329 116.269 31.1806C117.197 30.6258 117.905 29.8057 118.407 28.7736L116.609 27.8983C116.252 28.6318 115.791 29.1359 115.243 29.464C114.69 29.7944 113.983 29.9844 113.078 29.9844V31.9844ZM118.508 28.3359V18.3281H116.508V28.3359H118.508ZM118.41 17.897C117.917 16.8645 117.217 16.0425 116.296 15.4859C115.379 14.9316 114.307 14.6797 113.125 14.6797V16.6797C114.021 16.6797 114.718 16.8691 115.262 17.1977C115.802 17.5239 116.255 18.0261 116.606 18.7593L118.41 17.897ZM113.125 14.6797C111.166 14.6797 109.609 15.5043 108.6 17.1412C107.64 18.6986 107.227 20.9063 107.227 23.625H109.227C109.227 21.0468 109.63 19.2818 110.302 18.1908C110.926 17.1793 111.818 16.6797 113.125 16.6797V14.6797ZM137.359 11.7891L136.851 10.9277L136.848 10.9296L137.359 11.7891ZM152.078 13.3125L151.381 14.0299L151.384 14.0324L152.078 13.3125ZM155.711 21.8438L156.711 21.8167L156.71 21.7955L156.709 21.7744L155.711 21.8438ZM155.758 23.5781H156.758V23.5646L156.757 23.5511L155.758 23.5781ZM152.5 32.9531L153.233 33.6328L153.236 33.6304L152.5 32.9531ZM134.992 32.9531L134.259 33.6328L134.261 33.6354L134.992 32.9531ZM139.867 29.1094L139.051 29.6868L139.054 29.6916L139.867 29.1094ZM147.602 29.1328L148.406 29.7264L148.41 29.7216L147.602 29.1328ZM139.867 17.6016L140.684 18.179L140.687 18.1744L139.867 17.6016ZM145.047 0V-1H144.498L144.203 -0.536347L145.047 0ZM152.43 0L153.175 0.666303L154.664 -1H152.43V0ZM145.938 7.26562V8.26562H146.385L146.683 7.93193L145.938 7.26562ZM140.43 7.26562L139.586 6.72928L138.609 8.26562H140.43V7.26562ZM132.734 23.0859C132.734 20.7009 133.193 18.6134 134.085 16.8009L132.29 15.9179C131.245 18.0428 130.734 20.4397 130.734 23.0859H132.734ZM134.085 16.8009C134.972 14.9985 136.231 13.6235 137.871 12.6485L136.848 10.9296C134.862 12.1109 133.341 13.7828 132.29 15.9179L134.085 16.8009ZM137.867 12.6504C139.522 11.6747 141.459 11.1719 143.711 11.1719V9.17188C141.15 9.17188 138.853 9.74718 136.851 10.9277L137.867 12.6504ZM143.711 11.1719C146.912 11.1719 149.438 12.1429 151.381 14.0299L152.775 12.5951C150.406 10.2946 147.354 9.17188 143.711 9.17188V11.1719ZM151.384 14.0324C153.344 15.9222 154.477 18.5157 154.713 21.9131L156.709 21.7744C156.445 17.9843 155.156 14.8903 152.772 12.5926L151.384 14.0324ZM154.711 21.8708L154.758 23.6051L156.757 23.5511L156.711 21.8167L154.711 21.8708ZM154.758 23.5781C154.758 27.2742 153.732 30.1387 151.764 32.2759L153.236 33.6304C155.612 31.0488 156.758 27.6633 156.758 23.5781H154.758ZM151.767 32.2734C149.812 34.3827 147.18 35.4688 143.758 35.4688V37.4688C147.648 37.4688 150.844 36.2111 153.233 33.6328L151.767 32.2734ZM143.758 35.4688C140.336 35.4688 137.694 34.3826 135.723 32.2708L134.261 33.6354C136.665 36.2111 139.867 37.4688 143.758 37.4688V35.4688ZM135.726 32.2734C133.767 30.1594 132.734 27.2385 132.734 23.3906H130.734C130.734 27.6053 131.874 31.0593 134.259 33.6328L135.726 32.2734ZM132.734 23.3906V23.0859H130.734V23.3906H132.734ZM137.508 23.5781C137.508 26.088 137.977 28.1685 139.051 29.6868L140.684 28.5319C139.945 27.4878 139.508 25.8808 139.508 23.5781H137.508ZM139.054 29.6916C140.166 31.2442 141.779 32.0078 143.758 32.0078V30.0078C142.361 30.0078 141.381 29.5058 140.68 28.5272L139.054 29.6916ZM143.758 32.0078C145.695 32.0078 147.284 31.2483 148.406 29.7264L146.797 28.5393C146.075 29.5173 145.102 30.0078 143.758 30.0078V32.0078ZM148.41 29.7216C149.52 28.1972 149.984 25.9198 149.984 23.0859H147.984C147.984 25.7833 147.527 27.5372 146.793 28.544L148.41 29.7216ZM149.984 23.0859C149.984 20.6141 149.504 18.5521 148.417 17.0222L146.787 18.1809C147.543 19.2448 147.984 20.8391 147.984 23.0859H149.984ZM148.417 17.0222C147.296 15.446 145.687 14.6562 143.711 14.6562V16.6562C145.078 16.6562 146.063 17.1634 146.787 18.1809L148.417 17.0222ZM143.711 14.6562C141.746 14.6562 140.151 15.4496 139.047 17.0288L140.687 18.1744C141.396 17.1597 142.363 16.6562 143.711 16.6562V14.6562ZM139.051 17.0241C137.966 18.5575 137.508 20.8013 137.508 23.5781H139.508C139.508 20.9487 139.956 19.2081 140.684 18.179L139.051 17.0241ZM145.047 1H152.43V-1H145.047V1ZM151.684 -0.666303L145.192 6.59932L146.683 7.93193L153.175 0.666303L151.684 -0.666303ZM145.938 6.26562H140.43V8.26562H145.938V6.26562ZM141.274 7.80197L145.891 0.536347L144.203 -0.536347L139.586 6.72928L141.274 7.80197ZM166.164 10.6406L167.161 10.5688L167.095 9.64062H166.164V10.6406ZM166.375 13.5703L165.378 13.6421L165.561 16.1887L167.156 14.195L166.375 13.5703ZM181.68 19.6172L182.68 19.6172L182.68 19.6072L181.68 19.6172ZM181.68 36V37H182.68V36H181.68ZM174.906 36H173.906V37H174.906V36ZM173.969 16.6641L173.245 17.3538L173.253 17.3624L173.969 16.6641ZM166.562 18.1172L165.7 17.6113L165.562 17.8456V18.1172H166.562ZM166.562 36V37H167.562V36H166.562ZM159.789 36H158.789V37H159.789V36ZM159.789 10.6406V9.64062H158.789V10.6406H159.789ZM165.167 10.7124L165.378 13.6421L167.372 13.4985L167.161 10.5688L165.167 10.7124ZM167.156 14.195C168.768 12.18 170.903 11.1719 173.664 11.1719V9.17188C170.331 9.17188 167.607 10.4294 165.594 12.9456L167.156 14.195ZM173.664 11.1719C176.153 11.1719 177.828 11.895 178.895 13.1785L180.433 11.8996C178.875 10.0268 176.55 9.17188 173.664 9.17188V11.1719ZM178.895 13.1785C180 14.5072 180.65 16.6004 180.68 19.6271L182.68 19.6072C182.647 16.3527 181.953 13.7272 180.433 11.8996L178.895 13.1785ZM180.68 19.6172V36H182.68V19.6172H180.68ZM181.68 35H174.906V37H181.68V35ZM175.906 36V19.7812H173.906V36H175.906ZM175.906 19.7812C175.906 18.2342 175.575 16.879 174.685 15.9657L173.253 17.3624C173.612 17.7304 173.906 18.4533 173.906 19.7812H175.906ZM174.693 15.9744C173.792 15.0281 172.418 14.6797 170.852 14.6797V16.6797C172.191 16.6797 172.896 16.9875 173.245 17.3537L174.693 15.9744ZM170.852 14.6797C168.596 14.6797 166.835 15.6757 165.7 17.6113L167.425 18.6231C168.196 17.3086 169.295 16.6797 170.852 16.6797V14.6797ZM165.562 18.1172V36H167.562V18.1172H165.562ZM166.562 35H159.789V37H166.562V35ZM160.789 36V10.6406H158.789V36H160.789ZM159.789 11.6406H166.164V9.64062H159.789V11.6406ZM211.281 27.0469L210.769 27.9058L210.779 27.9116L210.789 27.9171L211.281 27.0469ZM207.344 25.7578L207.138 26.7365L207.141 26.7371L207.344 25.7578ZM201.086 12.4453L201.714 13.2236L201.715 13.223L201.086 12.4453ZM216.133 12.4453L215.514 13.2305L215.517 13.233L216.133 12.4453ZM219.039 18.3516V19.3516H220.039V18.3516H219.039ZM212.266 18.3516H211.266V19.3516H212.266V18.3516ZM211.328 15.9609L210.612 16.6593L210.621 16.668L211.328 15.9609ZM205.867 19.5703L205.312 20.4024L205.323 20.4094L205.334 20.4162L205.867 19.5703ZM209.477 20.7656L209.277 21.7455L209.286 21.7472L209.477 20.7656ZM213.742 21.8906L214.087 20.9518L214.085 20.9512L213.742 21.8906ZM216.133 34.3359L216.715 35.1488L216.719 35.1458L216.133 34.3359ZM202.773 35.3438L202.351 36.25L202.361 36.2547L202.773 35.3438ZM198.906 32.2266L198.089 32.8033L198.093 32.8078L198.906 32.2266ZM197.5 27.9375V26.9375H196.5V27.9375H197.5ZM203.922 27.9375L204.921 27.8856L204.871 26.9375H203.922V27.9375ZM211.516 30.9375L212.109 31.7421L212.113 31.7397L211.516 30.9375ZM213.523 28.9922C213.523 27.7435 212.859 26.7911 211.774 26.1766L210.789 27.9171C211.359 28.2402 211.523 28.5846 211.523 28.9922H213.523ZM211.793 26.1879C210.832 25.6149 209.384 25.1588 207.546 24.7786L207.141 26.7371C208.928 27.1068 210.105 27.5101 210.769 27.9058L211.793 26.1879ZM207.549 24.7791C204.614 24.1632 202.535 23.2541 201.206 22.1247C199.915 21.0279 199.297 19.6981 199.297 18.0703H197.297C197.297 20.3019 198.186 22.1831 199.911 23.6488C201.598 25.0818 204.042 26.0868 207.138 26.7365L207.549 24.7791ZM199.297 18.0703C199.297 16.1435 200.073 14.5473 201.714 13.2236L200.458 11.667C198.38 13.3434 197.297 15.4971 197.297 18.0703H199.297ZM201.715 13.223C203.371 11.8843 205.576 11.1719 208.422 11.1719V9.17188C205.236 9.17188 202.551 9.9751 200.457 11.6676L201.715 13.223ZM208.422 11.1719C211.487 11.1719 213.817 11.8924 215.514 13.2305L216.752 11.6601C214.605 9.96695 211.794 9.17188 208.422 9.17188V11.1719ZM215.517 13.233C217.216 14.5625 218.039 16.2429 218.039 18.3516H220.039C220.039 15.6165 218.924 13.3593 216.749 11.6577L215.517 13.233ZM219.039 17.3516H212.266V19.3516H219.039V17.3516ZM213.266 18.3516C213.266 17.1456 212.867 16.0853 212.035 15.2538L210.621 16.668C211.04 17.0866 211.266 17.62 211.266 18.3516H213.266ZM212.044 15.2626C211.156 14.3526 209.866 14 208.398 14V16C209.587 16 210.25 16.2881 210.612 16.6593L212.044 15.2626ZM208.398 14C207.119 14 205.979 14.2885 205.114 15.0021L206.386 16.5448C206.771 16.2271 207.397 16 208.398 16V14ZM205.114 15.0021C204.263 15.704 203.812 16.641 203.812 17.7422H205.812C205.812 17.2496 205.987 16.8742 206.386 16.5448L205.114 15.0021ZM203.812 17.7422C203.812 18.8733 204.372 19.7757 205.312 20.4024L206.422 18.7383C205.956 18.4274 205.812 18.1111 205.812 17.7422H203.812ZM205.334 20.4162C206.214 20.971 207.567 21.3972 209.277 21.7455L209.676 19.7857C208.011 19.4465 206.958 19.0759 206.4 18.7244L205.334 20.4162ZM209.286 21.7472C210.94 22.0689 212.308 22.4317 213.399 22.83L214.085 20.9512C212.864 20.5058 211.388 20.1186 209.667 19.784L209.286 21.7472ZM213.398 22.8295C215.067 23.4417 216.233 24.2468 216.982 25.1985C217.721 26.1381 218.109 27.2901 218.109 28.7109H220.109C220.109 26.8974 219.603 25.2955 218.553 23.9617C217.513 22.6399 215.996 21.6521 214.087 20.9518L213.398 22.8295ZM218.109 28.7109C218.109 30.6811 217.289 32.2635 215.546 33.5261L216.719 35.1458C218.945 33.5334 220.109 31.3658 220.109 28.7109H218.109ZM215.55 33.5231C213.779 34.7925 211.437 35.4688 208.445 35.4688V37.4688C211.735 37.4688 214.518 36.7231 216.715 35.1488L215.55 33.5231ZM208.445 35.4688C206.439 35.4688 204.693 35.115 203.186 34.4328L202.361 36.2547C204.167 37.0725 206.202 37.4688 208.445 37.4688V35.4688ZM203.196 34.4376C201.692 33.7357 200.546 32.8011 199.72 31.6453L198.093 32.8078C199.142 34.277 200.573 35.4206 202.351 36.2499L203.196 34.4376ZM199.723 31.6499C198.897 30.4795 198.5 29.2492 198.5 27.9375H196.5C196.5 29.6883 197.04 31.3174 198.089 32.8032L199.723 31.6499ZM197.5 28.9375H203.922V26.9375H197.5V28.9375ZM202.923 27.9894C202.998 29.4347 203.551 30.6474 204.646 31.4941L205.87 29.9122C205.308 29.4776 204.97 28.8465 204.921 27.8856L202.923 27.9894ZM204.646 31.4941C205.699 32.3088 207.046 32.6641 208.586 32.6641V30.6641C207.344 30.6641 206.473 30.3787 205.87 29.9122L204.646 31.4941ZM208.586 32.6641C209.98 32.6641 211.206 32.4086 212.109 31.7421L210.922 30.1329C210.512 30.4351 209.786 30.6641 208.586 30.6641V32.6641ZM212.113 31.7397C213.023 31.0623 213.523 30.1235 213.523 28.9922H211.523C211.523 29.4546 211.352 29.8127 210.919 30.1353L212.113 31.7397ZM238.188 36L237.298 36.4563L237.576 37H238.188V36ZM237.508 33.7266L238.496 33.5732L238.173 31.4887L236.764 33.0587L237.508 33.7266ZM224.922 34.3125L224.259 35.0615L224.263 35.0646L224.922 34.3125ZM225.461 22.6875L224.877 21.8755L224.874 21.8777L225.461 22.6875ZM234.109 20.5078V19.5078L234.105 19.5078L234.109 20.5078ZM237.227 20.5078V21.5078H238.227V20.5078H237.227ZM236.312 16.2422L235.548 16.8874L235.557 16.8971L236.312 16.2422ZM230.781 16.0078L230.141 15.2395L230.132 15.2472L230.781 16.0078ZM229.82 18.2578V19.2578H230.82V18.2578H229.82ZM223.047 18.2578H222.047V19.2578H223.047V18.2578ZM228.25 11.25L228.641 12.1705L228.648 12.1673L228.25 11.25ZM241.258 12.5391L240.604 13.2961L240.611 13.302L241.258 12.5391ZM244.023 30.1406L243.023 30.1406L243.023 30.1471L244.023 30.1406ZM245.031 35.6016H246.031V35.3523L245.914 35.1321L245.031 35.6016ZM245.031 36V37H246.031V36H245.031ZM235.352 30.6328L235.812 31.5206L235.818 31.5172L235.825 31.5138L235.352 30.6328ZM237.227 28.8281L238.106 29.3044L238.227 29.0816V28.8281H237.227ZM237.227 24.4688H238.227V23.4688H237.227V24.4688ZM229.281 27.9844L228.286 27.8914L228.284 27.9085L228.283 27.9257L229.281 27.9844ZM229.258 28.3828L228.26 28.3241L228.258 28.3534V28.3828H229.258ZM242.805 6.5625H243.805V6.12795L243.487 5.83144L242.805 6.5625ZM242.805 6.84375V7.84375H243.805V6.84375H242.805ZM237.414 6.84375L236.729 7.57181L237.017 7.84375H237.414V6.84375ZM233.805 3.44531L234.49 2.71725L233.805 2.0718L233.119 2.71725L233.805 3.44531ZM230.195 6.84375V7.84375H230.592L230.881 7.57181L230.195 6.84375ZM224.898 6.84375H223.898V7.84375H224.898V6.84375ZM224.898 6.46875L224.216 5.73737L223.898 6.03391V6.46875H224.898ZM231.836 0V-1H231.442L231.154 -0.731384L231.836 0ZM235.773 0L236.456 -0.731055L236.168 -1H235.773V0ZM239.077 35.5437C238.827 35.0555 238.625 34.4073 238.496 33.5732L236.52 33.8799C236.671 34.8583 236.923 35.7258 237.298 36.4563L239.077 35.5437ZM236.764 33.0587C235.327 34.6596 233.472 35.4688 231.109 35.4688V37.4688C233.996 37.4688 236.408 36.4498 238.252 34.3945L236.764 33.0587ZM231.109 35.4688C228.832 35.4688 227.014 34.8159 225.581 33.5604L224.263 35.0646C226.111 36.6841 228.418 37.4688 231.109 37.4688V35.4688ZM225.584 33.5635C224.176 32.3176 223.484 30.7787 223.484 28.875H221.484C221.484 31.3463 222.418 33.4324 224.259 35.0615L225.584 33.5635ZM223.484 28.875C223.484 26.472 224.351 24.7265 226.048 23.4973L224.874 21.8777C222.602 23.5235 221.484 25.903 221.484 28.875H223.484ZM226.045 23.4995C227.808 22.2322 230.453 21.523 234.114 21.5078L234.105 19.5078C230.235 19.5239 227.114 20.2678 224.877 21.8755L226.045 23.4995ZM234.109 21.5078H237.227V19.5078H234.109V21.5078ZM238.227 20.5078V19.0547H236.227V20.5078H238.227ZM238.227 19.0547C238.227 17.7066 237.873 16.5156 237.068 15.5873L235.557 16.8971C235.971 17.375 236.227 18.059 236.227 19.0547H238.227ZM237.077 15.597C236.225 14.588 234.943 14.1875 233.477 14.1875V16.1875C234.604 16.1875 235.213 16.4901 235.548 16.8874L237.077 15.597ZM233.477 14.1875C232.181 14.1875 231.03 14.4992 230.141 15.2396L231.421 16.776C231.845 16.4227 232.491 16.1875 233.477 16.1875V14.1875ZM230.132 15.2472C229.238 16.0104 228.82 17.0551 228.82 18.2578H230.82C230.82 17.5542 231.043 17.099 231.431 16.7684L230.132 15.2472ZM229.82 17.2578H223.047V19.2578H229.82V17.2578ZM224.047 18.2578C224.047 17.0111 224.427 15.8553 225.216 14.7667L223.597 13.5927C222.573 15.0041 222.047 16.567 222.047 18.2578H224.047ZM225.216 14.7667C225.999 13.6867 227.124 12.8145 228.641 12.1705L227.859 10.3295C226.064 11.0918 224.626 12.1727 223.597 13.5927L225.216 14.7667ZM228.648 12.1673C230.162 11.5103 231.883 11.1719 233.828 11.1719V9.17188C231.648 9.17188 229.65 9.55215 227.852 10.3327L228.648 12.1673ZM233.828 11.1719C236.785 11.1719 239.006 11.9161 240.604 13.296L241.911 11.7821C239.854 10.0058 237.121 9.17188 233.828 9.17188V11.1719ZM240.611 13.302C242.19 14.6402 243.023 16.5411 243.023 19.1484H245.023C245.023 16.0683 244.013 13.5629 241.904 11.7762L240.611 13.302ZM243.023 19.1484V30.1406H245.023V19.1484H243.023ZM243.023 30.1471C243.039 32.6138 243.38 34.6256 244.148 36.071L245.914 35.1321C245.37 34.1088 245.039 32.48 245.023 30.1341L243.023 30.1471ZM244.031 35.6016V36H246.031V35.6016H244.031ZM245.031 35H238.188V37H245.031V35ZM232.586 32.2891C233.738 32.2891 234.818 32.0357 235.812 31.5206L234.891 29.7451C234.197 30.1049 233.434 30.2891 232.586 30.2891V32.2891ZM235.825 31.5138C236.819 30.98 237.595 30.2466 238.106 29.3044L236.347 28.3518C236.045 28.9096 235.572 29.3793 234.878 29.7518L235.825 31.5138ZM238.227 28.8281V24.4688H236.227V28.8281H238.227ZM237.227 23.4688H234.695V25.4688H237.227V23.4688ZM234.695 23.4688C232.909 23.4688 231.387 23.7733 230.254 24.509C229.069 25.2786 228.42 26.4478 228.286 27.8914L230.277 28.0773C230.361 27.1772 230.724 26.5886 231.343 26.1863C232.015 25.7501 233.091 25.4688 234.695 25.4688V23.4688ZM228.283 27.9257L228.26 28.3241L230.256 28.4415L230.28 28.0431L228.283 27.9257ZM228.258 28.3828C228.258 29.4918 228.661 30.4586 229.471 31.2043L230.826 29.7332C230.448 29.3851 230.258 28.9614 230.258 28.3828H228.258ZM229.471 31.2043C230.296 31.9645 231.376 32.2891 232.586 32.2891V30.2891C231.734 30.2891 231.188 30.0668 230.826 29.7332L229.471 31.2043ZM241.805 6.5625V6.84375H243.805V6.5625H241.805ZM242.805 5.84375H237.414V7.84375H242.805V5.84375ZM238.1 6.11569L234.49 2.71725L233.119 4.17337L236.729 7.57181L238.1 6.11569ZM233.119 2.71725L229.51 6.11569L230.881 7.57181L234.49 4.17337L233.119 2.71725ZM230.195 5.84375H224.898V7.84375H230.195V5.84375ZM225.898 6.84375V6.46875H223.898V6.84375H225.898ZM225.58 7.20013L232.518 0.731384L231.154 -0.731384L224.216 5.73737L225.58 7.20013ZM231.836 1H235.773V-1H231.836V1ZM235.091 0.731055L242.122 7.29356L243.487 5.83144L236.456 -0.731055L235.091 0.731055ZM255.461 10.6406L256.458 10.5688L256.392 9.64062H255.461V10.6406ZM255.672 13.5703L254.674 13.6421L254.858 16.1887L256.453 14.195L255.672 13.5703ZM270.977 19.6172L271.977 19.6172L271.977 19.6072L270.977 19.6172ZM270.977 36V37H271.977V36H270.977ZM264.203 36H263.203V37H264.203V36ZM263.266 16.6641L262.541 17.3538L262.55 17.3624L263.266 16.6641ZM255.859 18.1172L254.997 17.6113L254.859 17.8456V18.1172H255.859ZM255.859 36V37H256.859V36H255.859ZM249.086 36H248.086V37H249.086V36ZM249.086 10.6406V9.64062H248.086V10.6406H249.086ZM254.464 10.7124L254.674 13.6421L256.669 13.4985L256.458 10.5688L254.464 10.7124ZM256.453 14.195C258.065 12.18 260.2 11.1719 262.961 11.1719V9.17188C259.628 9.17188 256.904 10.4294 254.891 12.9456L256.453 14.195ZM262.961 11.1719C265.45 11.1719 267.125 11.895 268.192 13.1785L269.73 11.8996C268.172 10.0268 265.847 9.17188 262.961 9.17188V11.1719ZM268.192 13.1785C269.297 14.5072 269.946 16.6004 269.977 19.6271L271.977 19.6072C271.944 16.3527 271.25 13.7272 269.73 11.8996L268.192 13.1785ZM269.977 19.6172V36H271.977V19.6172H269.977ZM270.977 35H264.203V37H270.977V35ZM265.203 36V19.7812H263.203V36H265.203ZM265.203 19.7812C265.203 18.2342 264.872 16.879 263.981 15.9657L262.55 17.3624C262.909 17.7304 263.203 18.4533 263.203 19.7812H265.203ZM263.99 15.9744C263.089 15.0281 261.715 14.6797 260.148 14.6797V16.6797C261.488 16.6797 262.193 16.9875 262.541 17.3537L263.99 15.9744ZM260.148 14.6797C257.893 14.6797 256.132 15.6757 254.997 17.6113L256.722 18.6231C257.493 17.3086 258.592 16.6797 260.148 16.6797V14.6797ZM254.859 18.1172V36H256.859V18.1172H254.859ZM255.859 35H249.086V37H255.859V35ZM250.086 36V10.6406H248.086V36H250.086ZM249.086 11.6406H255.461V9.64062H249.086V11.6406ZM308.336 33.0703L309.13 33.6782L309.132 33.6755L308.336 33.0703ZM294.484 33.3047L295.274 32.6907L293.766 30.7529L293.491 33.1924L294.484 33.3047ZM294.18 36V37H295.073L295.173 36.1123L294.18 36ZM288.086 36H287.086V37H288.086V36ZM288.086 0V-1H287.086V0H288.086ZM294.859 0H295.859V-1H294.859V0ZM294.859 12.9141H293.859V15.6232L295.62 13.5638L294.859 12.9141ZM308.289 13.5938L307.496 14.2024L307.5 14.2084L308.289 13.5938ZM302.945 17.4609L302.12 18.0256L302.124 18.0307L302.945 17.4609ZM294.859 18.3281L293.951 17.9101L293.859 18.1091V18.3281H294.859ZM294.859 28.3359H293.859V28.557L293.953 28.7575L294.859 28.3359ZM303.672 27.7734L304.625 28.0772L304.625 28.0766L303.672 27.7734ZM309.938 23.5547C309.938 27.4874 309.097 30.4173 307.54 32.4651L309.132 33.6755C311.044 31.1608 311.938 27.747 311.938 23.5547H309.938ZM307.542 32.4625C306.015 34.4564 303.901 35.4688 301.07 35.4688V37.4688C304.459 37.4688 307.188 36.2155 309.13 33.6782L307.542 32.4625ZM301.07 35.4688C298.618 35.4688 296.719 34.5484 295.274 32.6907L293.695 33.9186C295.531 36.2797 298.022 37.4688 301.07 37.4688V35.4688ZM293.491 33.1924L293.186 35.8877L295.173 36.1123L295.478 33.417L293.491 33.1924ZM294.18 35H288.086V37H294.18V35ZM289.086 36V0H287.086V36H289.086ZM288.086 1H294.859V-1H288.086V1ZM293.859 0V12.9141H295.859V0H293.859ZM295.62 13.5638C296.98 11.9725 298.749 11.1719 301.023 11.1719V9.17188C298.204 9.17188 295.864 10.1994 294.099 12.2643L295.62 13.5638ZM301.023 11.1719C303.834 11.1719 305.951 12.1888 307.496 14.2024L309.082 12.9851C307.127 10.4362 304.401 9.17188 301.023 9.17188V11.1719ZM307.5 14.2084C309.081 16.2362 309.938 19.1831 309.938 23.1797H311.938C311.938 18.9263 311.029 15.4825 309.078 12.9791L307.5 14.2084ZM309.938 23.1797V23.5547H311.938V23.1797H309.938ZM305.164 23.0625C305.164 20.438 304.756 18.3178 303.767 16.8912L302.124 18.0307C302.759 18.9478 303.164 20.562 303.164 23.0625H305.164ZM303.771 16.8963C302.747 15.4007 301.206 14.6797 299.312 14.6797V16.6797C300.637 16.6797 301.518 17.1462 302.12 18.0256L303.771 16.8963ZM299.312 14.6797C298.099 14.6797 297.002 14.9287 296.071 15.4823C295.133 16.04 294.431 16.8672 293.951 17.9101L295.768 18.7462C296.1 18.0234 296.546 17.5265 297.093 17.2013C297.647 16.8721 298.37 16.6797 299.312 16.6797V14.6797ZM293.859 18.3281V28.3359H295.859V18.3281H293.859ZM293.953 28.7575C294.44 29.8069 295.15 30.6389 296.095 31.1997C297.033 31.7567 298.137 32.0078 299.359 32.0078V30.0078C298.409 30.0078 297.678 29.8136 297.116 29.48C296.561 29.1502 296.106 28.6462 295.766 27.9144L293.953 28.7575ZM299.359 32.0078C300.621 32.0078 301.751 31.6943 302.678 30.9992C303.602 30.3064 304.234 29.3017 304.625 28.0772L302.719 27.4697C302.422 28.4015 301.992 29.0139 301.478 29.3992C300.967 29.7823 300.285 30.0078 299.359 30.0078V32.0078ZM304.625 28.0766C305.001 26.8935 305.164 25.1966 305.164 23.0625H303.164C303.164 25.1472 302.999 26.5909 302.719 27.4702L304.625 28.0766ZM329.828 36L328.938 36.4563L329.217 37H329.828V36ZM329.148 33.7266L330.137 33.5732L329.813 31.4887L328.404 33.0587L329.148 33.7266ZM316.562 34.3125L315.9 35.0615L315.903 35.0646L316.562 34.3125ZM317.102 22.6875L316.518 21.8755L316.515 21.8777L317.102 22.6875ZM325.75 20.5078V19.5078L325.746 19.5078L325.75 20.5078ZM328.867 20.5078V21.5078H329.867V20.5078H328.867ZM327.953 16.2422L327.189 16.8874L327.197 16.8971L327.953 16.2422ZM322.422 16.0078L321.782 15.2395L321.773 15.2472L322.422 16.0078ZM321.461 18.2578V19.2578H322.461V18.2578H321.461ZM314.688 18.2578H313.688V19.2578H314.688V18.2578ZM319.891 11.25L320.281 12.1705L320.289 12.1673L319.891 11.25ZM332.898 12.5391L332.245 13.2961L332.252 13.302L332.898 12.5391ZM335.664 30.1406L334.664 30.1406L334.664 30.1471L335.664 30.1406ZM336.672 35.6016H337.672V35.3523L337.555 35.1321L336.672 35.6016ZM336.672 36V37H337.672V36H336.672ZM326.992 30.6328L327.453 31.5206L327.459 31.5172L327.465 31.5138L326.992 30.6328ZM328.867 28.8281L329.746 29.3044L329.867 29.0816V28.8281H328.867ZM328.867 24.4688H329.867V23.4688H328.867V24.4688ZM320.922 27.9844L319.926 27.8914L319.925 27.9085L319.924 27.9257L320.922 27.9844ZM320.898 28.3828L319.9 28.3241L319.898 28.3534V28.3828H320.898ZM330.718 35.5437C330.468 35.0555 330.266 34.4073 330.137 33.5732L328.16 33.8799C328.312 34.8583 328.564 35.7258 328.938 36.4563L330.718 35.5437ZM328.404 33.0587C326.967 34.6596 325.113 35.4688 322.75 35.4688V37.4688C325.637 37.4688 328.048 36.4498 329.893 34.3945L328.404 33.0587ZM322.75 35.4688C320.472 35.4688 318.654 34.8159 317.222 33.5604L315.903 35.0646C317.752 36.6841 320.059 37.4688 322.75 37.4688V35.4688ZM317.225 33.5635C315.817 32.3176 315.125 30.7787 315.125 28.875H313.125C313.125 31.3463 314.058 33.4324 315.9 35.0615L317.225 33.5635ZM315.125 28.875C315.125 26.472 315.991 24.7265 317.688 23.4973L316.515 21.8777C314.243 23.5235 313.125 25.903 313.125 28.875H315.125ZM317.685 23.4995C319.448 22.2322 322.093 21.523 325.754 21.5078L325.746 19.5078C321.875 19.5239 318.755 20.2678 316.518 21.8755L317.685 23.4995ZM325.75 21.5078H328.867V19.5078H325.75V21.5078ZM329.867 20.5078V19.0547H327.867V20.5078H329.867ZM329.867 19.0547C329.867 17.7066 329.513 16.5156 328.709 15.5873L327.197 16.8971C327.612 17.375 327.867 18.059 327.867 19.0547H329.867ZM328.717 15.597C327.865 14.588 326.583 14.1875 325.117 14.1875V16.1875C326.245 16.1875 326.854 16.4901 327.189 16.8874L328.717 15.597ZM325.117 14.1875C323.822 14.1875 322.67 14.4992 321.782 15.2396L323.062 16.776C323.486 16.4227 324.132 16.1875 325.117 16.1875V14.1875ZM321.773 15.2472C320.879 16.0104 320.461 17.0551 320.461 18.2578H322.461C322.461 17.5542 322.684 17.099 323.071 16.7684L321.773 15.2472ZM321.461 17.2578H314.688V19.2578H321.461V17.2578ZM315.688 18.2578C315.688 17.0111 316.067 15.8553 316.856 14.7667L315.237 13.5927C314.214 15.0041 313.688 16.567 313.688 18.2578H315.688ZM316.856 14.7667C317.639 13.6867 318.764 12.8145 320.281 12.1705L319.5 10.3295C317.704 11.0918 316.267 12.1727 315.237 13.5927L316.856 14.7667ZM320.289 12.1673C321.803 11.5103 323.524 11.1719 325.469 11.1719V9.17188C323.289 9.17188 321.291 9.55215 319.493 10.3327L320.289 12.1673ZM325.469 11.1719C328.426 11.1719 330.646 11.9161 332.245 13.296L333.552 11.7821C331.494 10.0058 328.762 9.17188 325.469 9.17188V11.1719ZM332.252 13.302C333.831 14.6402 334.664 16.5411 334.664 19.1484H336.664C336.664 16.0683 335.653 13.5629 333.545 11.7762L332.252 13.302ZM334.664 19.1484V30.1406H336.664V19.1484H334.664ZM334.664 30.1471C334.68 32.6138 335.02 34.6256 335.789 36.071L337.555 35.1321C337.011 34.1088 336.679 32.48 336.664 30.1341L334.664 30.1471ZM335.672 35.6016V36H337.672V35.6016H335.672ZM336.672 35H329.828V37H336.672V35ZM324.227 32.2891C325.378 32.2891 326.459 32.0357 327.453 31.5206L326.532 29.7451C325.838 30.1049 325.075 30.2891 324.227 30.2891V32.2891ZM327.465 31.5138C328.459 30.98 329.236 30.2466 329.746 29.3044L327.988 28.3518C327.686 28.9096 327.213 29.3793 326.519 29.7518L327.465 31.5138ZM329.867 28.8281V24.4688H327.867V28.8281H329.867ZM328.867 23.4688H326.336V25.4688H328.867V23.4688ZM326.336 23.4688C324.549 23.4688 323.028 23.7733 321.895 24.509C320.71 25.2786 320.061 26.4478 319.926 27.8914L321.918 28.0773C322.002 27.1772 322.365 26.5886 322.984 26.1863C323.656 25.7501 324.732 25.4688 326.336 25.4688V23.4688ZM319.924 27.9257L319.9 28.3241L321.897 28.4415L321.92 28.0431L319.924 27.9257ZM319.898 28.3828C319.898 29.4918 320.302 30.4586 321.112 31.2043L322.467 29.7332C322.089 29.3851 321.898 28.9614 321.898 28.3828H319.898ZM321.112 31.2043C321.937 31.9645 323.016 32.2891 324.227 32.2891V30.2891C323.374 30.2891 322.829 30.0668 322.467 29.7332L321.112 31.2043ZM349.961 26.4141L349.003 26.7002L349.963 29.9165L350.92 26.6989L349.961 26.4141ZM354.648 10.6406V9.64062H353.902L353.69 10.3558L354.648 10.6406ZM361.914 10.6406L362.859 10.9693L363.321 9.64062H361.914V10.6406ZM351.719 39.9375L352.64 40.3256L352.653 40.2962L352.663 40.2662L351.719 39.9375ZM351.156 41.2734L352.066 41.6895L352.072 41.6756L352.078 41.6615L351.156 41.2734ZM340.656 45.7969H339.656V46.5464L340.376 46.7567L340.656 45.7969ZM340.656 40.6641L340.679 39.6643L339.656 39.6411V40.6641H340.656ZM341.688 40.6875L341.665 41.6872L341.676 41.6875H341.688V40.6875ZM344.547 40.1016L344.026 39.2477L344.017 39.2536L344.547 40.1016ZM346.047 38.1562L346.977 38.5249L346.981 38.5131L346.047 38.1562ZM346.844 36.0703L347.778 36.4272L347.908 36.0857L347.788 35.7405L346.844 36.0703ZM337.961 10.6406V9.64062H336.552L337.017 10.9704L337.961 10.6406ZM345.25 10.6406L346.208 10.3545L345.995 9.64062H345.25V10.6406ZM350.92 26.6989L355.607 10.9255L353.69 10.3558L349.002 26.1292L350.92 26.6989ZM354.648 11.6406H361.914V9.64062H354.648V11.6406ZM360.97 10.312L350.774 39.6088L352.663 40.2662L362.859 10.9693L360.97 10.312ZM350.797 39.5494L350.235 40.8854L352.078 41.6615L352.64 40.3256L350.797 39.5494ZM350.247 40.8574C349.55 42.3804 348.656 43.4615 347.592 44.1664C346.531 44.8693 345.235 45.2422 343.656 45.2422V47.2422C345.562 47.2422 347.258 46.787 348.697 45.8336C350.133 44.8822 351.247 43.4789 352.066 41.6895L350.247 40.8574ZM343.656 45.2422C342.774 45.2422 341.868 45.1093 340.937 44.837L340.376 46.7567C341.476 47.0782 342.57 47.2422 343.656 47.2422V45.2422ZM341.656 45.7969V40.6641H339.656V45.7969H341.656ZM340.634 41.6638L341.665 41.6872L341.71 39.6878L340.679 39.6643L340.634 41.6638ZM341.688 41.6875C343.035 41.6875 344.214 41.4886 345.077 40.9496L344.017 39.2536C343.629 39.4958 342.903 39.6875 341.688 39.6875V41.6875ZM345.067 40.9554C345.942 40.4219 346.561 39.5724 346.976 38.5249L345.117 37.7876C344.814 38.5526 344.433 39 344.026 39.2478L345.067 40.9554ZM346.981 38.5131L347.778 36.4272L345.91 35.7134L345.113 37.7994L346.981 38.5131ZM347.788 35.7405L338.905 10.3109L337.017 10.9704L345.9 36.4001L347.788 35.7405ZM337.961 11.6406H345.25V9.64062H337.961V11.6406ZM344.292 10.9268L349.003 26.7002L350.919 26.1279L346.208 10.3545L344.292 10.9268Z" fill="white"/>
</svg>
